<svg width="221" height="243" viewBox="0 0 221 243" fill="none" xmlns="http://www.w3.org/2000/svg">
<path d="M188.171 25.5652L182.54 23.4074L176.756 21.9688H171.529L166.437 22.5166H162.74L161.598 23.596L164.276 28.8731L168.262 36.4851L171.922 44.1059L174.283 50.4591L175.665 55.6594L176.448 60.8052V66.6516L183.594 63.1041L188.556 59.8735L193.551 55.6645L195.061 52.1921L196.522 48.8333L196.905 44.1171L196.696 39.8336L195.057 35.5786L193.946 32.6959" fill="white"/>
<path d="M172.461 25.4687C172.461 25.4687 167.909 24.9326 164.695 26.8076C164.695 26.8076 178.621 52.7843 176.746 61.3538C174.871 69.9233 177.282 63.2285 177.282 63.2285C177.282 63.2285 186.118 58.4083 186.655 57.3369C186.655 57.3369 185.583 57.8724 182.905 54.6586C180.227 51.4449 173.532 39.1263 172.997 36.4484C172.461 33.7702 172.193 26.8082 172.461 25.4687Z" fill="#B5CDE1"/>
<path d="M190.028 35.6252C190.241 36.639 190.943 37.3485 191.594 37.2113C192.245 37.0741 192.6 36.142 192.386 35.1288C192.173 34.1153 191.472 33.4058 190.821 33.543C190.169 33.6802 189.815 34.6125 190.028 35.6252Z" fill="#010101"/>
<path d="M137.111 1.09859C137.111 1.09859 86.4972 -2.51677 55.164 34.0384C55.164 34.0384 51.1474 59.7469 55.9674 67.7812C55.9674 67.7812 94.5313 90.2764 101.762 103.131C101.762 103.131 90.5142 122.814 88.104 125.626C88.104 125.626 86.8989 133.66 88.5057 136.873L95.7359 143.301L108.993 132.455L129.881 125.224C129.881 125.224 127.872 110.362 127.069 108.353C127.069 108.353 170.051 84.2508 171.256 83.4474C172.461 82.6442 177.282 69.3878 177.282 62.9608C177.282 56.5336 170.051 19.5769 137.111 1.09859Z" fill="#DAE3B6"/>
<path d="M80.07 28.8161C80.07 28.8161 59.9848 32.4312 56.3695 36.8499C52.7542 41.2686 54.7627 65.371 54.7627 65.371C54.7627 65.371 93.4595 90.0089 103.636 103.399C103.636 103.399 102.833 111.701 98.2803 117.056C93.7279 122.413 89.1749 129.642 91.5852 137.409C93.9954 145.175 97.209 144.64 97.209 144.64L119.972 128.304C119.972 128.304 121.242 100.855 137.111 90.2764C152.376 80.1003 147.824 83.0457 147.824 83.0457C147.824 83.0457 141.129 82.7778 139.79 82.2421C136.755 80.8244 134.095 78.7149 132.023 76.0828C129.345 72.6015 91.3177 49.5706 91.3177 49.5706C91.3177 49.5706 77.9268 42.8755 76.0525 42.0725C76.0525 42.0725 74.7137 33.7702 80.07 28.8161Z" fill="#ACB886"/>
<path d="M168.712 59.7469C168.712 59.7469 161.481 62.4247 160.41 62.4247C159.339 62.4247 161.214 63.7638 163.624 64.5676C163.624 64.5676 170.586 61.0863 168.712 59.7469Z" fill="#010101"/>
<path d="M173.532 72.0655C173.532 72.0655 120.776 68.8519 94.5313 80.903" stroke="#010101" stroke-width="0.931696"/>
<path d="M122.115 80.6355C122.115 80.6355 125.06 92.1507 126.935 93.7578C126.935 93.7578 109.528 90.0087 105.511 90.0087C105.511 90.0087 107.92 81.1714 107.653 76.6187L122.115 80.6355Z" fill="#DE8C65" stroke="#010101" stroke-width="0.465848"/>
<path d="M121.847 83.313H116.758L118.633 91.6152C118.633 91.6152 107.386 89.7405 106.314 89.7405C106.314 89.7405 108.457 79.8321 108.189 78.761L122.115 79.2962L121.847 83.313Z" fill="#AC6161"/>
<path d="M114.616 80.3673L114.348 86.5268" stroke="#010101" stroke-width="0.465848"/>
<path d="M116.875 80.3177C102.334 79.4206 91.2734 66.9056 92.1705 52.3646C93.0676 37.8237 105.583 26.7631 120.124 27.6602C134.665 28.5573 145.725 41.0723 144.828 55.6133C143.931 70.1543 131.416 81.2148 116.875 80.3177Z" fill="white"/>
<path d="M95.6023 42.8754C95.6023 42.8754 98.8168 64.0319 116.491 68.5844C134.166 73.1369 142.199 62.961 144.074 61.6219C144.074 61.6219 136.576 82.7777 113.546 79.8321C90.5143 76.8864 89.9784 48.2313 95.6023 42.8754Z" fill="#BACBE4"/>
<path d="M116.223 53.8551C116.223 54.2788 116.349 54.693 116.584 55.0452C116.819 55.3975 117.154 55.6721 117.545 55.8343C117.937 55.9964 118.367 56.0389 118.783 55.9563C119.198 55.8737 119.58 55.6697 119.88 55.3702C120.179 55.0706 120.383 54.689 120.466 54.2735C120.549 53.858 120.506 53.4273 120.344 53.0359C120.182 52.6444 119.908 52.3099 119.556 52.0745C119.203 51.8391 118.789 51.7134 118.366 51.7133C118.084 51.7132 117.806 51.7686 117.546 51.8762C117.286 51.9838 117.05 52.1416 116.851 52.3405C116.652 52.5394 116.494 52.7755 116.386 53.0354C116.279 53.2953 116.223 53.5738 116.223 53.8551Z" fill="#010101"/>
<path d="M116.592 80.0101C102.073 78.8085 91.2772 66.0646 92.4788 51.5459C93.6804 37.0272 106.424 26.2315 120.943 27.4331C135.462 28.6347 146.257 41.3786 145.056 55.8973C143.854 70.416 131.11 81.2117 116.592 80.0101Z" stroke="#010101" stroke-width="1.39754"/>
<path d="M53.5576 41.8043C53.5576 41.8043 38.5595 40.7332 35.6143 42.3395C32.6691 43.9466 29.455 51.1772 29.1871 51.9804C29.1871 51.9804 29.4554 52.9182 30.6601 51.7129C31.8657 50.508 42.1093 43.8801 53.1559 45.2857L53.5576 41.8043Z" fill="#010101"/>
<path d="M53.5576 64.5676C53.5576 64.5676 22.4259 62.9608 3.14458 78.0244C3.14458 78.0244 1.33625 78.8278 0.934082 81.8406C0.323124 86.4243 -0.270569 90.2764 0.13113 90.8787C0.13113 90.8787 1.13561 91.0798 2.74245 89.2721C4.34879 87.4645 24.635 67.1787 54.5616 66.777L53.5576 64.5676Z" fill="#010101"/>
<path d="M111.402 116.588C111.402 116.588 113.21 114.379 115.821 117.592C118.432 120.806 126.868 133.258 125.864 136.873L109.193 132.053C109.193 132.053 105.377 124.22 106.984 121.408C108.141 119.538 109.64 117.902 111.402 116.588Z" fill="#010101"/>
<path d="M111.402 116.588L110.197 112.972" stroke="#010101" stroke-width="0.349386"/>
<path d="M108.993 118.797L107.185 117.191" stroke="#010101" stroke-width="0.349386"/>
<path d="M106.984 121.408L105.98 121.208" stroke="#010101" stroke-width="0.349386"/>
<path d="M127.671 108.754C127.671 108.754 146.953 118.194 149.564 119.601C149.564 119.601 134.5 123.617 133.095 123.818L129.479 121.208L127.671 108.754Z" fill="#010101"/>
<path d="M104.573 135.669L95.7359 142.899L88.5057 136.873C87.3001 133.258 88.104 125.626 88.104 125.626C91.3177 121.609 101.762 103.131 101.762 103.131C87.3001 83.8494 55.9674 67.7813 55.9674 67.7813C50.344 57.337 55.1639 34.0384 55.1639 34.0384C83.2836 -1.31164 137.111 1.09861 137.111 1.09861C137.111 1.09861 155.188 12.3465 162.017 23.1922C162.017 23.1922 188.127 13.5514 195.76 36.0465C203.392 58.5421 178.486 65.3711 178.486 65.3711C178.486 65.3711 172.461 80.6355 170.854 83.4474L127.069 108.353C127.069 108.353 129.077 122.011 129.077 124.421" stroke="#010101" stroke-width="1.39754"/>
<path d="M162.017 23.1922C162.017 23.1922 180.989 49.6497 176.865 69.3878" stroke="#010101" stroke-width="1.39754"/>
<path d="M96.941 143.1C96.941 143.1 94.5313 157.361 90.3132 155.352C86.0951 153.343 88.3047 148.121 88.3047 137.878L96.941 143.1Z" fill="#010101"/>
<path d="M87.3002 125.023C87.3002 125.023 77.8604 123.015 76.0525 122.413C74.2446 121.81 74.8474 122.814 77.2581 123.818C79.6683 124.823 86.4973 127.233 86.4973 127.233L87.5013 127.634L87.3002 125.023Z" fill="#010101"/>
<path d="M93.5269 139.685V137.075" stroke="#010101" stroke-width="0.349386"/>
<path d="M90.9155 137.677L91.1166 136.271" stroke="#010101" stroke-width="0.349386"/>
<path d="M155.858 89.205L158.402 86.4604" stroke="#010101" stroke-width="0.465848"/>
<path d="M159.205 84.8534L161.214 81.6398" stroke="#010101" stroke-width="0.465848"/>
<path d="M162.419 78.8278L163.825 74.208" stroke="#010101" stroke-width="0.465848"/>
<path d="M164.829 69.7893L164.628 65.7725" stroke="#010101" stroke-width="0.465848"/>
<path d="M164.025 58.7427L162.62 53.7217" stroke="#010101" stroke-width="0.465848"/>
<path d="M160.812 49.1018L158.602 44.0806" stroke="#010101" stroke-width="0.465848"/>
<path d="M156.795 40.4652L152.978 33.0339" stroke="#010101" stroke-width="0.465848"/>
<path d="M150.167 29.4186L145.145 23.9956" stroke="#010101" stroke-width="0.465848"/>
<path d="M143.338 21.1839L137.513 15.7605" stroke="#010101" stroke-width="0.465848"/>
<path d="M134.701 13.5514L127.872 9.3335" stroke="#010101" stroke-width="0.465848"/>
<path d="M123.453 7.12388L117.428 4.91473" stroke="#010101" stroke-width="0.465848"/>
<path d="M123.253 110.16C123.253 110.16 128.877 118.396 130.282 119.4C130.282 119.4 125.261 122.413 123.454 122.814C123.454 122.814 120.44 111.767 119.638 111.567C119.638 111.567 120.642 108.754 123.253 110.16Z" fill="#D8D8D7" stroke="#010101" stroke-width="0.232924"/>
<path d="M124.257 119.199C124.257 119.79 124.976 120.27 125.864 120.27C126.751 120.27 127.471 119.79 127.471 119.199C127.471 118.607 126.751 118.127 125.864 118.127C124.976 118.127 124.257 118.607 124.257 119.199Z" fill="#ADACAF" stroke="#010101" stroke-width="0.232924"/>
<path d="M171.055 122.212L166.034 109.759L160.611 119.4C160.611 119.4 122.048 121.006 99.1507 141.895C76.2536 162.783 75.4502 180.258 80.2706 199.941C85.091 219.625 96.5394 229.868 117.227 234.287C117.227 234.287 121.043 243.124 130.885 241.919C130.885 241.919 135.103 240.714 136.509 237.099C136.509 237.099 147.958 243.323 149.832 229.934C149.832 229.934 157.464 227.39 159.072 224.847C159.072 224.847 167.908 229.801 173.398 225.65C178.888 221.498 179.96 216.946 179.96 215.607C179.96 215.607 192.279 220.963 197.233 213.732C202.187 206.502 200.045 200.477 199.509 199.138C199.509 199.138 207.275 193.245 206.338 180.258C206.338 180.258 213.836 176.91 217.853 169.277C221.87 161.645 219.192 152.272 218.255 149.862C216.694 146.284 214.397 143.076 211.513 140.446C208.629 137.816 205.223 135.823 201.517 134.597C201.517 134.597 203.125 118.663 186.387 116.789C186.387 116.789 179.022 115.717 171.055 122.212Z" fill="#F4CBBA"/>
<path d="M203.968 153.018C206.313 157.55 209.987 160.307 212.175 159.175C214.363 158.043 214.236 153.451 211.891 148.919C209.546 144.387 205.872 141.632 203.685 142.763C201.496 143.895 201.623 148.487 203.968 153.018Z" fill="#815957"/>
<path d="M202.589 144.506C202.589 144.506 207.208 144.305 210.221 149.327C213.1 154.124 211.024 157.561 209.418 158.364C209.418 158.364 201.785 154.348 202.589 144.506Z" fill="#5A3B3E"/>
<path d="M203.968 152.818C206.313 157.35 209.987 160.106 212.175 158.973C214.363 157.842 214.236 153.25 211.891 148.718C209.546 144.186 205.872 141.43 203.685 142.562C201.496 143.694 201.623 148.286 203.968 152.818Z" stroke="#010101" stroke-width="0.465848"/>
<path d="M182.344 164.99C185.032 170.091 190.024 172.744 193.496 170.914C196.967 169.084 197.603 163.466 194.915 158.366C192.227 153.266 187.235 150.615 183.763 152.444C180.292 154.272 179.656 159.891 182.344 164.99Z" fill="#815957"/>
<path d="M182.303 154.147C182.303 154.147 194.555 155.955 192.345 170.617C192.345 170.617 184.914 173.428 181.098 159.57C181.098 159.57 180.897 154.549 182.303 154.147Z" fill="#5A3B3E"/>
<path d="M182.545 164.79C185.233 169.891 190.226 172.543 193.697 170.713C197.168 168.884 197.803 163.266 195.116 158.166C192.428 153.065 187.435 150.414 183.964 152.243C180.493 154.072 179.857 159.69 182.545 164.79Z" stroke="#010101" stroke-width="0.465848"/>
<path d="M171.658 123.216C171.8 124.21 172.461 123.617 180.696 128.036C185.764 130.756 200.379 137.075 200.58 131.35C200.878 122.869 193.701 115.985 185.215 115.985C176.729 115.985 171.256 120.404 171.658 123.216Z" fill="white"/>
<path d="M172.863 121.006C172.863 121.006 186.722 123.216 192.546 132.856L188.328 134.263C188.328 134.263 174.47 124.622 170.654 123.417L172.863 121.006Z" fill="#BCCBDF"/>
<path d="M104.775 137.878L109.996 146.113C109.996 146.113 72.237 178.249 118.231 207.373C118.231 207.373 135.103 218.62 161.816 214.402C161.816 214.402 166.636 223.441 170.051 226.051C166.652 226.096 163.265 225.622 160.008 224.646C160.008 224.646 150.97 230.069 135.706 232.479C135.706 232.479 132.291 239.107 125.462 239.911C125.462 239.911 118.834 237.501 117.629 234.287C117.629 234.287 88.7064 232.88 79.6683 199.138C70.6293 165.394 98.9496 138.079 104.775 137.878Z" fill="#95696E"/>
<path d="M143.94 231.073C143.94 231.073 145.949 238.906 137.111 235.893C137.111 235.893 137.915 233.081 137.513 231.877C137.513 231.877 142.534 231.675 143.94 231.073Z" fill="#95696E"/>
<path d="M187.726 207.976C187.726 207.976 191.542 212.394 194.956 213.8C194.956 213.8 188.931 220.629 180.495 215.005L180.294 212.996L187.726 207.976Z" fill="#95696E"/>
<path d="M174.269 144.908C174.269 144.908 163.624 148.724 166.034 171.822C166.034 171.822 166.235 183.672 183.709 187.287C183.709 187.287 200.781 183.27 201.584 182.467C201.584 182.467 185.517 184.475 180.294 179.656C175.073 174.835 167.385 169.391 174.269 146.715C177.683 135.468 174.269 144.908 174.269 144.908Z" fill="#9C7F76"/>
<path d="M94.7314 225.248C94.7314 225.248 91.92 229.064 90.7149 229.064C89.5098 229.064 86.8989 226.654 86.095 226.654C85.2921 226.654 83.8859 225.65 81.6763 228.864C81.6763 228.864 82.8814 232.278 88.3046 232.479C93.7279 232.68 97.7449 229.667 98.7489 228.864C99.753 228.06 94.7314 225.248 94.7314 225.248Z" fill="#A78273"/>
<path d="M90.5142 233.282L88.3046 232.479C88.3046 232.479 86.2961 235.893 84.8904 235.491C83.4842 235.09 83.0825 233.484 81.6763 233.484C80.2706 233.484 79.4672 236.295 80.0699 237.501C80.6723 238.706 84.6893 240.915 85.8939 240.111C87.0995 239.308 90.7148 234.889 90.5142 233.282Z" fill="#A78273"/>
<path d="M80.07 237.501C80.07 237.501 77.9282 239.843 75.3838 240.513C75.3838 240.513 76.4556 241.45 77.3918 241.45C78.329 241.45 81.6764 239.976 81.6764 239.976L80.07 237.501Z" fill="#A78273"/>
<path d="M98.9496 228.462C98.9496 228.462 88.3047 237.902 82.2791 229.868C82.2791 229.868 81.8774 222.236 89.7104 228.864" stroke="#010101" stroke-width="0.931696"/>
<path d="M95.3347 225.113C95.3347 225.113 90.3132 230.671 86.0951 229.667" stroke="#010101" stroke-width="0.931696"/>
<path d="M91.1166 233.282C91.1166 233.282 88.104 241.316 83.2836 239.911C78.4632 238.505 78.8649 232.479 81.6764 233.484C84.4887 234.488 84.2876 235.491 84.4887 236.295" stroke="#010101" stroke-width="0.931696"/>
<path d="M87.5013 233.282C87.5013 233.282 84.6894 237.902 82.2791 236.496" stroke="#010101" stroke-width="0.931696"/>
<path d="M79.8689 237.501C79.8689 237.501 76.2536 241.718 72.8393 240.513C72.8393 240.513 80.4713 242.521 81.8774 240.111" stroke="#010101" stroke-width="0.931696"/>
<path d="M171.055 121.81L166.034 109.357L160.611 118.998C160.611 118.998 122.048 120.605 99.1507 141.493C76.2536 162.382 75.4502 179.856 80.2706 199.539C85.091 219.223 96.5394 229.466 117.227 233.885C117.227 233.885 121.043 242.722 130.885 241.517C130.885 241.517 135.103 240.312 136.509 236.697C136.509 236.697 147.958 242.922 149.832 229.532C149.832 229.532 157.464 226.989 159.072 224.445C159.072 224.445 167.908 229.399 173.398 225.248C178.888 221.096 179.96 216.544 179.96 215.206C179.96 215.206 192.279 220.561 197.233 213.331C202.187 206.1 200.045 200.075 199.509 198.736C199.509 198.736 207.275 192.844 206.338 179.856C206.338 179.856 213.836 176.508 217.853 168.876C221.87 161.244 219.192 151.87 218.255 149.46C216.694 145.883 214.397 142.675 211.513 140.045C208.629 137.414 205.223 135.421 201.517 134.196C201.517 134.196 203.125 118.262 186.387 116.387C186.387 116.387 179.022 115.316 171.055 121.81Z" stroke="#010101" stroke-width="1.39754"/>
<path d="M190.303 122.364C190.794 123.104 191.566 123.455 192.028 123.149C192.491 122.843 192.468 121.995 191.977 121.255C191.487 120.516 190.715 120.164 190.253 120.471C189.79 120.777 189.813 121.625 190.303 122.364Z" fill="#010101"/>
<path d="M159.004 119.199C159.004 119.199 184.111 125.827 188.328 135.066" stroke="#010101" stroke-width="1.39754"/>
<path d="M201.517 134.196C201.517 134.196 185.717 129.242 166.837 151.134" stroke="#010101" stroke-width="1.39754"/>
<path d="M187.525 135.468C187.525 135.468 168.444 141.493 171.457 164.591C174.47 187.69 203.593 186.886 216.648 171.219" stroke="#010101" stroke-width="0.931696"/>
<path d="M203.593 181.664C203.593 181.664 186.32 187.287 183.709 187.287" stroke="#010101" stroke-width="0.465848"/>
<path d="M194.555 187.69C194.555 187.69 185.717 191.103 183.91 193.112" stroke="#010101" stroke-width="0.465848"/>
<path d="M179.089 208.578C179.089 208.578 179.692 216.411 178.286 218.822" stroke="#010101" stroke-width="0.931696"/>
<path d="M198.974 198.736C198.974 198.736 186.119 210.787 179.491 212.595" stroke="#010101" stroke-width="0.931696"/>
<path d="M155.59 218.42C156.94 220.852 158.708 223.027 160.812 224.847" stroke="#010101" stroke-width="0.931696"/>
<path d="M136.107 231.275C140.526 232.479 150.568 229.064 150.568 229.064" stroke="#010101" stroke-width="0.931696"/>
<path d="M137.312 231.675C137.243 233.391 136.904 235.086 136.308 236.697" stroke="#010101" stroke-width="0.931696"/>
<path d="M124.457 153.644C124.457 157.398 125.57 161.068 127.656 164.19C129.742 167.311 132.706 169.744 136.174 171.181C139.642 172.617 143.459 172.993 147.141 172.261C150.822 171.529 154.205 169.721 156.859 167.066C159.514 164.412 161.321 161.03 162.054 157.348C162.786 153.666 162.41 149.85 160.974 146.382C159.537 142.913 157.105 139.949 153.983 137.863C150.862 135.778 147.192 134.664 143.438 134.664C138.404 134.664 133.577 136.664 130.017 140.223C126.457 143.783 124.458 148.611 124.457 153.644Z" fill="white"/>
<path d="M129.077 142.096C129.077 142.096 122.449 164.993 155.791 166.801C155.791 166.801 149.564 175.036 137.312 171.42C125.061 167.805 123.654 155.151 124.457 149.929C124.937 146.822 126.59 144.018 129.077 142.096Z" fill="#BCCBDF"/>
<path d="M124.056 153.644C124.056 157.398 125.169 161.068 127.255 164.189C129.34 167.311 132.305 169.744 135.773 171.18C139.241 172.617 143.057 172.993 146.739 172.26C150.421 171.528 153.803 169.72 156.458 167.066C159.112 164.412 160.92 161.03 161.652 157.348C162.385 153.666 162.009 149.85 160.572 146.381C159.136 142.913 156.703 139.949 153.582 137.863C150.46 135.778 146.791 134.664 143.037 134.664C140.544 134.664 138.076 135.155 135.773 136.109C133.471 137.063 131.378 138.461 129.616 140.223C127.853 141.986 126.455 144.078 125.501 146.381C124.547 148.684 124.056 151.152 124.056 153.644Z" stroke="#010101" stroke-width="0.931696"/>
<path d="M138.316 149.628C138.316 149.966 138.416 150.296 138.604 150.577C138.792 150.857 139.058 151.076 139.37 151.206C139.682 151.335 140.025 151.369 140.357 151.303C140.688 151.237 140.992 151.074 141.231 150.836C141.47 150.597 141.632 150.293 141.698 149.961C141.764 149.63 141.73 149.287 141.601 148.975C141.472 148.663 141.253 148.396 140.972 148.209C140.691 148.021 140.361 147.921 140.024 147.921C139.799 147.921 139.577 147.965 139.37 148.051C139.163 148.137 138.975 148.262 138.816 148.421C138.658 148.579 138.532 148.767 138.446 148.975C138.361 149.182 138.316 149.404 138.316 149.628Z" fill="#010101"/>
<path d="M126.667 136.873L102.364 132.053L111.202 146.715" fill="#F2CABC"/>
<path d="M126.667 136.873L102.364 132.053L111.202 146.715" stroke="#010101" stroke-width="1.39754"/>
<path d="M103.971 133.058C103.971 133.058 117.428 142.899 120.039 144.908C120.039 144.908 115.62 147.519 112.005 146.916L103.971 133.058Z" fill="#95696E"/>
</svg>
